<?xml version="1.0" encoding="UTF-8"?>
<svg id="Ebene_2" data-name="Ebene 2" xmlns="http://www.w3.org/2000/svg" viewBox="0 0 226.05 154.98">
  <defs>
    <style>
      .cls-1 {
        fill: none;
        stroke-width: 6px;
      }

      .cls-1, .cls-2 {
        stroke: #343a40;
      }

      .cls-1, .cls-2, .cls-3 {
        stroke-miterlimit: 10;
      }

      .cls-4 {
        fill: #faedcd;
      }

      .cls-2 {
        fill: #fff;
        stroke-width: 8px;
      }

      .cls-5 {
        fill: #d4a373;
      }

      .cls-3 {
        stroke: #000;
      }
    </style>
  </defs>
  <g id="Ebene_1-2" data-name="Ebene 1">
    <polygon class="cls-5" points="193.35 122.92 165.57 128 165.57 34.06 193.35 39.14 193.35 122.92"/>
    <polygon class="cls-4" points="86.64 143.44 3 128 5.14 35.78 86.64 16.05 86.64 143.44"/>
    <polygon class="cls-5" points="213.29 119.4 188.28 123.71 188.28 40.48 213.29 45.2 213.29 119.4"/>
    <polygon class="cls-5" points="222.62 115.57 208.89 119.42 208.89 45.21 222.62 49.42 222.62 115.57"/>
    <line class="cls-2" x1="88.79" y1="144.3" x2="88.79" y2="15.19"/>
    <polygon class="cls-5" points="144.93 134.01 117.53 139.15 117.53 23.77 144.93 28.91 144.93 134.01"/>
    <polygon class="cls-5" points="168.67 129.01 142.83 133.57 142.83 29.77 168.67 34.78 168.67 129.01"/>
    <polygon class="cls-5" points="120.25 137.76 90.93 143.44 90.93 16.05 120.25 21.73 120.25 137.76"/>
    <polygon class="cls-1" points="3 34.49 3 128 88.79 144.3 223.05 116.85 223.05 47.79 88.79 15.19 3 34.49"/>
    <path d="M199.29,81.11c5.06,1.45,7.91,6.56,7.91,13.66,0,10.34-5.69,17.3-16.73,19.12l-28.82,4.75V42.72l29.43,6.79c10.13,2.34,15.35,9.13,15.35,18.98,0,6.6-2.59,11.05-7.14,11.96v.65ZM189.11,63.37l-9.67-1.39v11.21l9.6.76c3.32.26,4.97-1.37,4.97-4.82s-1.51-5.27-4.9-5.75ZM188.9,99.64c3.93-.3,5.76-2.12,5.76-5.81,0-3.94-1.9-5.86-5.83-5.83l-9.39.06v12.31l9.46-.73Z"/>
    <path d="M122.47,125.85c-5.42.78-9.95-.26-13.56-2.61-3.66-2.38-5.27-6.55-5.27-11.74s1.35-8.58,4.52-11.74c3.13-3.12,7.92-5.96,13.56-7.83l14.01-5.32c0-2.94-.54-5.15-1.63-6.62-1.09-1.47-2.58-2.4-4.84-2.4-2.11,0-4.87.05-6.03,1.3-1.16,1.26-1.19,1.59-1.51,3.91l-17.33-.65c1.07-7.32,3.75-12.15,8.29-15.65,4.47-3.44,7.96-3.91,15.07-3.91,8.29,0,15.62,3.17,19.41,6.92,3.74,3.7,5.59,9.48,5.59,17.37v16.12c0,1.77.24,2.9.72,3.38.48.49,1.14.68,1.99.58l.93-.11v12.37c-.5.27-1.32.58-2.45.91-1.13.33-2.24.58-3.32.73-1.66.24-3.4.14-5.19-.29-1.81-.43-3.34-1.55-4.58-3.36-1.25-1.82-1.87-4.64-1.87-8.48l1.25,1.52c-.65,2.66-1.73,5.03-3.22,7.11-1.5,2.1-4.4,4.8-6.87,6.17-2.49,1.38-4,1.79-7.64,2.31ZM126.91,111.67c1.67-.2,3.17-.77,4.49-1.71,1.31-.93,2.36-2.24,3.15-3.91.78-1.67,1.18-3.73,1.18-6.18v-1.89l-8.07,3.15c-1.55.59-2.85,1.42-3.88,2.5s-1.56,2.37-1.56,3.88.38,2.63,1.13,3.36c.75.73,1.94,1,3.56.8Z"/>
    <g>
      <path class="cls-3" d="M14.12,100.41l-4.39,10.11s-1.47,4.03,1.51,7.8c3.15,3.97,5.63.83,5.63.83,0,0,26.73-43.1,36.53-68.12,0,0,2.41-6.2-2.8-8.89-2.72-1.4-5.43-.23-7.42,1.58-1.17,1.06-2.57,3.24-3.35,4.64l-5.26,9.42s4.39,6.94,3.6,13.72c-.11.98-.6,1.91-1.36,2.35-.66.39-1.51.46-2.25-.83-1.46-2.53-.73-3.95-3.94-7.5l-6.3,12.12s3.62,5.73,3.3,13.4c-.03.79-.3,1.54-.8,1.98-.46.41-1.11.57-1.89-.35-.36-.42-.62-.97-.79-1.56-.41-1.44-1.48-4.9-2.91-6.81l-4.36,10.2s3.72,5.84,2.73,13.27c-.12.87-.63,1.5-1.28,1.46-.45-.02-.98-.36-1.45-1.43l-.45-1.74c-.26-1.01-.6-1.99-1.02-2.89l-1.28-2.76Z"/>
      <path class="cls-3" d="M23.69,111.15l-6.12,9.58s2.2,2.64,4.81,1.4c2.73-1.29,29.81-29.59,29.81-29.59l27.06-32.17s4.43-7.69-1.45-11.97c-5.53-4.02-12.39.85-12.39.85l-16.85,19.33s7.54,11.47,3.89,17.54c0,0-1.7,1.81-3.63.15-.6-.52-1.01-1.24-1.22-2.05-.48-1.91-1.64-5.33-4.01-7.23l-6.4,11.31s3.93,7.6,2.33,13.05c0,0-.87,1.59-2.37.83-.85-.43-1.48-1.37-1.71-2.43-.32-1.46-.99-3.88-1.98-4.87l-6.57,11.39s.61,3.41.66,6.07c.03,1.23-.1,2.51-.98,2.77-.4.12-1.31.1-1.63-.39h0c-.42-.64-.72-1.38-.89-2.16l-.38-1.44Z"/>
    </g>
  </g>
</svg>