<?xml version="1.0" encoding="UTF-8"?>
<svg id="Ebene_2" data-name="Ebene 2" xmlns="http://www.w3.org/2000/svg" viewBox="0 0 203.43 130.17">
  <defs>
    <style>
      .cls-1 {
        fill: none;
        stroke-width: 6px;
      }

      .cls-1, .cls-2 {
        stroke: #343a40;
      }

      .cls-1, .cls-2, .cls-3 {
        stroke-miterlimit: 10;
      }

      .cls-4 {
        fill: #faedcd;
      }

      .cls-2 {
        fill: #fff;
        stroke-width: 8px;
      }

      .cls-5 {
        fill: #d4a373;
      }

      .cls-3 {
        stroke: #000;
      }
    </style>
  </defs>
  <g id="Ebene_1-2" data-name="Ebene 1">
    <polygon class="cls-5" points="173.79 103.25 148.86 107.51 148.86 28.61 173.79 32.87 173.79 103.25"/>
    <polygon class="cls-4" points="78.05 120.48 3 107.51 4.92 30.05 78.05 13.48 78.05 120.48"/>
    <polygon class="cls-5" points="191.68 100.29 169.24 103.91 169.24 34 191.68 37.97 191.68 100.29"/>
    <polygon class="cls-5" points="200.05 97.08 187.73 100.31 187.73 37.98 200.05 41.51 200.05 97.08"/>
    <line class="cls-2" x1="79.97" y1="121.2" x2="79.97" y2="12.76"/>
    <polygon class="cls-5" points="130.35 112.56 105.76 116.88 105.76 19.96 130.35 24.28 130.35 112.56"/>
    <polygon class="cls-5" points="151.64 108.36 128.46 112.2 128.46 25.01 151.64 29.21 151.64 108.36"/>
    <polygon class="cls-5" points="108.2 115.71 81.9 120.48 81.9 13.48 108.2 18.25 108.2 115.71"/>
    <polygon class="cls-1" points="3 28.97 3 107.51 79.97 121.2 200.43 98.14 200.43 40.14 79.97 12.76 3 28.97"/>
    <path d="M185.94,68.12c4.54,1.22,7.1,5.51,7.1,11.47,0,8.69-5.11,14.53-15.01,16.06l-25.86,3.99v-63.77l26.4,5.71c9.09,1.96,13.77,7.67,13.77,15.95,0,5.54-2.33,9.28-6.41,10.04v.55ZM176.8,53.23l-8.67-1.17v9.41l8.61.64c2.98.22,4.46-1.15,4.46-4.05s-1.36-4.42-4.4-4.83ZM176.61,83.69c3.52-.25,5.16-1.78,5.16-4.88,0-3.31-1.7-4.92-5.23-4.9l-8.43.05v10.34l8.49-.61Z"/>
    <path d="M109.11,107.74c-6.13.96-11.24-.31-15.33-3.19-4.14-2.91-5.96-8.01-5.96-14.35s1.53-10.49,5.11-14.35c3.54-3.82,8.96-7.28,15.33-9.57l15.83-6.51c0-3.6-.61-6.3-1.84-8.09-1.24-1.8-2.91-2.94-5.47-2.94-2.38,0-5.51.06-6.81,1.59-1.31,1.54-1.35,1.95-1.7,4.78l-19.59-.8c1.21-8.95,4.23-14.86,9.37-19.14,5.06-4.21,8.99-4.78,17.04-4.78,9.37,0,17.65,3.88,21.94,8.46,4.22,4.52,6.32,11.59,6.32,21.24v19.72c0,2.16.27,3.54.82,4.14.54.6,1.29.83,2.25.71l1.05-.14v15.12c-.57.34-1.49.71-2.77,1.11-1.28.41-2.53.71-3.76.9-1.88.29-3.84.18-5.87-.35-2.05-.53-3.78-1.9-5.18-4.11-1.41-2.22-2.11-5.68-2.11-10.37l1.41,1.86c-.74,3.25-1.95,6.15-3.64,8.69-1.7,2.56-4.98,5.87-7.77,7.55-2.82,1.69-4.52,2.18-8.64,2.83ZM114.13,90.4c1.89-.25,3.58-.95,5.07-2.09,1.48-1.14,2.67-2.73,3.56-4.78.89-2.04,1.33-4.56,1.33-7.56v-2.31l-9.12,3.86c-1.76.72-3.22,1.74-4.39,3.06s-1.76,2.9-1.76,4.75.43,3.22,1.28,4.11c.85.9,2.2,1.22,4.03.98Z"/>
    <g>
      <path class="cls-3" d="M12.98,84.34l-3.94,8.49s-1.32,3.39,1.36,6.55c2.83,3.33,5.05.7,5.05.7,0,0,23.98-36.2,32.77-57.22,0,0,2.16-5.21-2.51-7.47-2.44-1.18-4.87-.19-6.66,1.33-1.05.89-2.31,2.72-3.01,3.9l-4.72,7.91s3.94,5.83,3.23,11.52c-.1.82-.54,1.6-1.22,1.97-.59.33-1.35.38-2.02-.7-1.31-2.13-.66-3.32-3.54-6.3l-5.66,10.18s3.25,4.81,2.96,11.26c-.03.66-.27,1.29-.72,1.66-.41.34-.99.48-1.69-.29-.32-.36-.56-.82-.71-1.31-.37-1.21-1.33-4.11-2.61-5.72l-3.92,8.57s3.33,4.9,2.45,11.15c-.1.73-.57,1.26-1.15,1.23-.41-.02-.88-.3-1.3-1.2l-.4-1.46c-.23-.85-.54-1.67-.92-2.43l-1.14-2.32Z"/>
      <path class="cls-3" d="M21.56,93.36l-5.49,8.05s1.97,2.22,4.32,1.18c2.45-1.09,26.74-24.85,26.74-24.85l24.28-27.02s3.97-6.46-1.31-10.05c-4.96-3.37-11.12.71-11.12.71l-15.12,16.24s6.76,9.64,3.49,14.73c0,0-1.52,1.52-3.26.13-.54-.43-.91-1.05-1.09-1.72-.43-1.6-1.47-4.48-3.6-6.07l-5.74,9.5s3.53,6.38,2.09,10.96c0,0-.78,1.34-2.13.7-.77-.36-1.32-1.15-1.53-2.04-.29-1.23-.89-3.26-1.78-4.09l-5.89,9.57s.54,2.86.59,5.09c.02,1.03-.09,2.11-.88,2.33-.36.1-1.17.09-1.46-.33h0c-.37-.54-.65-1.16-.79-1.81l-.34-1.21Z"/>
    </g>
  </g>
</svg>