<?xml version="1.0" encoding="UTF-8"?>
<svg id="Ebene_2" data-name="Ebene 2" xmlns="http://www.w3.org/2000/svg" viewBox="0 0 206.33 123.68">
  <defs>
    <style>
      .cls-1 {
        fill: none;
        stroke-width: 6px;
      }

      .cls-1, .cls-2 {
        stroke: #343a40;
      }

      .cls-1, .cls-2, .cls-3 {
        stroke-miterlimit: 10;
      }

      .cls-4 {
        fill: #faedcd;
      }

      .cls-2 {
        fill: #fff;
        stroke-width: 7px;
      }

      .cls-5 {
        fill: #d4a373;
      }

      .cls-3 {
        stroke: #000;
      }
    </style>
  </defs>
  <g id="Ebene_1-2">
    <g>
      <polygon class="cls-5" points="176.29 101.16 151 105.78 151 20.26 176.29 24.89 176.29 101.16"/>
      <polygon class="cls-4" points="79.15 119.84 3 105.78 4.95 21.82 79.15 3.86 79.15 119.84"/>
      <polygon class="cls-5" points="194.44 97.96 171.68 101.88 171.68 26.11 194.44 30.41 194.44 97.96"/>
      <polygon class="cls-5" points="202.94 94.47 190.44 97.97 190.44 30.42 202.94 34.25 202.94 94.47"/>
      <line class="cls-2" x1="81.1" y1="120.62" x2="81.1" y2="3.08"/>
      <polygon class="cls-5" points="132.22 111.25 107.26 115.94 107.26 10.89 132.22 15.57 132.22 111.25"/>
      <polygon class="cls-5" points="153.82 106.7 130.3 110.86 130.3 16.36 153.82 20.92 153.82 106.7"/>
      <polygon class="cls-5" points="109.74 114.67 83.05 119.84 83.05 3.86 109.74 9.03 109.74 114.67"/>
      <polygon class="cls-1" points="3 20.65 3 105.78 81.1 120.62 203.33 95.63 203.33 32.76 81.1 3.08 3 20.65"/>
      <path d="M127.13,23.22l22.1,72.46v1.75l-13.74,2.28-2.77-9.83-20.52,2.3-3.61,12-21.32,4.34.4-3.24,31.38-83.95,8.08,1.88ZM117.09,76.02l11.52-.41-5.44-19.09h-.16s-5.93,19.5-5.93,19.5Z"/>
      <path d="M187.16,63.43c4.44,1.28,6.94,5.79,6.94,12.07,0,9.14-4.99,15.3-14.68,16.9l-25.29,4.2V29.49l25.82,6.01c8.89,2.07,13.47,8.07,13.47,16.78,0,5.83-2.27,9.76-6.26,10.57v.58ZM178.22,47.75l-8.48-1.23v9.91l8.42.67c2.92.23,4.36-1.21,4.36-4.26s-1.33-4.66-4.3-5.09ZM178.03,79.81c3.45-.27,5.05-1.87,5.05-5.13,0-3.48-1.66-5.18-5.11-5.15l-8.24.05v10.88l8.3-.64Z"/>
    </g>
    <g>
      <path class="cls-3" d="M16.95,77.74l-1.81,6.4c-.83,2.94-1.49,5.92-1.97,8.93-.17,1.06-.33,2.17-.47,3.26-.48,3.83,5.27-3.83,5.27-3.83,0,0,19.89-30.68,29.67-52.25,1.85-4.08,3.06-8.43,3.54-12.89.18-1.7.31-3.52.31-5.25,0-.29-.07-.48-.2-.57-1.01-.79-5.62,3.99-6.99,5.36-.96.96-4.6,5.51-5.27,6.7l-4.63,7.75s3.75,5.92,3.08,11.71c-.1.84-.52,1.63-1.16,2.01-.57.34-1.29.39-1.92-.71-1.25-2.16-.63-3.37-3.36-6.4l-5.38,10.35s3.09,4.89,2.82,11.44c-.03.67-.26,1.32-.68,1.69-.39.35-.95.49-1.61-.3-.31-.36-.53-.83-.67-1.33-.35-1.23-1.27-4.18-2.49-5.81l-3.73,8.71s3.17,4.98,2.33,11.33c-.1.74-.54,1.28-1.1,1.25-.39-.02-.83-.31-1.23-1.22l-.38-1.49c-.22-.86-.52-1.7-.87-2.47l-1.09-2.36Z"/>
      <path class="cls-3" d="M22.99,87.97l-4.3,6.74c-.14.22-.11.52.09.7.63.58,4.58-1.73,6.36-2.92,1.44-.96,9.41-7.57,16.43-14.8,4.22-4.35,8.04-9.06,11.43-14.08l8.53-13.74c.74-1.1,3.24-5.51,3.83-6.7.48-.96,4.31-9.1,3.83-10.53-.27-.81-1.92,0-2.94.76-3.06,2.28-7.67,5.53-10.58,8l-10.41,8.87c-.21.18-.26.48-.11.71,1.15,1.88,5.76,9.93,3.11,14.5-.03.05-.06.09-.1.13-.3.27-1.59,1.31-3.04.07-.51-.44-.87-1.06-1.04-1.75-.37-1.48-1.22-4.02-2.89-5.69-.26-.26-.7-.19-.88.13l-4.97,8.79c-.09.16-.1.35-.02.51.59,1.24,3.04,6.71,1.89,10.8-.02.06-.04.11-.08.17-.19.29-.89,1.17-1.97.62-.73-.37-1.26-1.17-1.46-2.07-.21-.96-.6-2.41-1.15-3.41-.21-.38-.75-.37-.97,0l-5.08,8.81c-.06.11-.09.24-.07.37.12.69.49,3.06.53,4.98.02,1.05-.09,2.15-.84,2.37-.34.1-1.12.09-1.39-.33h0c-.36-.55-.62-1.18-.76-1.84h0c-.12-.47-.75-.57-1.01-.16Z"/>
    </g>
  </g>
</svg>
