<?xml version="1.0" encoding="UTF-8"?>
<svg id="Ebene_2" data-name="Ebene 2" xmlns="http://www.w3.org/2000/svg" viewBox="0 0 285.38 642.59">
  <defs>
    <style>
      .cls-1 {
        fill: none;
        stroke: #D4A373;
        stroke-miterlimit: 10;
        stroke-width: 13px;
      }
    </style>
  </defs>
  <g id="Ebene_1-2" data-name="home_arrow">
    <g>
      <path class="cls-1" d="M138.09,9.29c-20.14,20.82-57.43,57.2-80.76,79.82-5.6,5.44-.36,14.77,7.2,12.83l48.28-12.43c3.52-.91,7.24.45,9.36,3.41l27.67,38.82c4.13,5.8,13.27,2.47,12.71-4.63l-8.86-112.22c-.62-7.81-10.15-11.24-15.6-5.61Z"/>
      <path class="cls-1" d="M117.84,91.63s-22.46,44.93-33.7,108.58c-11.14,63.11,63.65,63.65,63.65,63.65h0c16.15,0,32.26-1.91,47.89-5.96,11.56-2.99,23.7-5.27,30.73-5.27,11.23,0,67.39,7.49,48.67,78.62-23.53,89.43-202.18,0-202.18,0,0,0-82.37-41.18-63.65,59.9,9.62,51.93,45.35,67.65,73.97,71.64,16.96,2.36,34.22.37,50.53-4.84,28.35-9.05,114.14-23.44,103.89,38.03-7.49,44.93-41.18,26.21-67.39,37.44-24.93,10.69-45.29,30.19-52.42,108.58"/>
    </g>
  </g>
</svg>
