<?xml version="1.0" encoding="UTF-8"?>
<svg id="Ebene_2" data-name="Ebene 2" xmlns="http://www.w3.org/2000/svg" viewBox="0 0 360 307.52">
  <defs>
    <style>
      .cls-1 {
        fill: #d4a373;
      }

      .cls-1, .cls-2 {
        stroke-width: 0px;
      }

      .cls-2 {
        fill: #fff;
      }
    </style>
  </defs>
  <g id="Ebene_1-2" data-name="Ebene 1">
    <path class="cls-1" d="M272.6,300.42H83.8c-22.1,0-40-17.9-40-40V71.72c0-22.1,17.9-40,40-40h188.7c22.1,0,40,17.9,40,40v188.7c.1,22.1-17.9,40-39.9,40Z"/>
    <g>
      <path class="cls-2" d="M280.7,138.22c-4.7,26.3-32.9,50.5-73.9,79.3-42,29.4-75.3,49.8-101.2,45.2-12.2-2.2-20.6-12.6-16.7-34.8,3.1-17.2,13.6-33.5,18.5-38.8,1.6-1.8,36.4,16.5,43.8,10.5,5.8-4.7-25.4-25.4-41.9-16.5,3.7-20.8,17.6-23.9,28-24.6,12.6-.8,45.6,26.6,54.9,18.1,8.2-7.5-30.6-35.5-47.2-23.2,4.1-23.1,24.3-21.4,35.6-19.3,11.3,2,44.4,24.7,46.2,14.5,2.1-11.5-24.3-23.8-39.3-20.6,3.5-19.5,32.9-12.4,38.2-10.4,8.8-2.8,21.2-5.4,31.2-3.6,12.4,2.2,26.4,9.5,23.8,24.2Z"/>
      <path class="cls-2" d="M115.3,90.52c-1,1-2.6,2.4-3.9,4.3-1.5,2.2-4.9,7.2-4.8,13.1.1,6.5,4.3,13,4.3,13h0c.9,1.3,2.2,3.4,3,6.1,1.2,3.9.9,7.1.6,9.5-.5,4.7-3.6,13.6-3.6,13.6,0,0,6.5-4.8,9.1-10.3,1.3-2.7,2.9-9.9,2.1-13.6-1.1-4.6-1.3-3.9-2.9-7.7l-1.3-2.4c-.9-1.7-1.9-4-2.5-6.9-.6-2.6-.7-4.8-.7-6.6,0-.4,0-.9.1-1.3l.5-10.8Z"/>
      <path class="cls-2" d="M148.2,69.92c-1,1-2.8,2.5-4.2,4.5-1.6,2.4-5.2,7.6-5.1,13.8.1,6.9,4.6,13.7,4.6,13.7h0c1,1.4,2.3,3.6,3.2,6.4,1.2,4.1.9,7.5.7,10-.5,4.9-3.8,14.3-3.8,14.3,0,0,6.9-5.1,9.6-10.9,1.3-2.8,3.1-10.5,2.2-14.3-1.1-4.8-1.4-4.1-3-8.1l-1.4-2.6c-.9-1.8-2-4.2-2.7-7.2-.6-2.7-.8-5.1-.8-7,0-.5,0-.9.1-1.4l.6-11.2Z"/>
      <path class="cls-2" d="M180.8,52.22c-1.1,1.1-3,2.7-4.4,4.8-1.7,2.5-5.5,8.1-5.4,14.7.1,7.3,4.9,14.6,4.9,14.6h0c1.1,1.5,2.4,3.8,3.4,6.9,1.3,4.4,1,7.9.7,10.7-.5,5.2-4.1,15.3-4.1,15.3,0,0,7.3-5.4,10.3-11.6,1.4-3,3.3-11.2,2.4-15.2-1.2-5.2-1.5-4.4-3.2-8.6l-1.4-2.7c-1-1.9-2.1-4.5-2.9-7.7-.7-2.9-.8-5.4-.8-7.4,0-.5.1-1,.1-1.5l.4-12.3Z"/>
    </g>
    <text/>
  </g>
</svg>